<svg xmlns="http://www.w3.org/2000/svg" width="900" height="620" viewBox="0 0 900 620">
<rect width="100%" height="100%" fill="white"/>
<text x="450" y="38" text-anchor="middle" font-family="Arial" font-size="24" font-weight="700">State gating attenuates command following on CLadder</text>
<line x1="105" y1="503.2" x2="855" y2="503.2" stroke="#d9d9d9"/>
<text x="91" y="508.2" text-anchor="end" font-family="Arial" font-size="14">0.60</text>
<line x1="105" y1="394.5" x2="855" y2="394.5" stroke="#d9d9d9"/>
<text x="91" y="399.5" text-anchor="end" font-family="Arial" font-size="14">0.65</text>
<line x1="105" y1="285.8" x2="855" y2="285.8" stroke="#d9d9d9"/>
<text x="91" y="290.8" text-anchor="end" font-family="Arial" font-size="14">0.70</text>
<line x1="105" y1="177.0" x2="855" y2="177.0" stroke="#d9d9d9"/>
<text x="91" y="182.0" text-anchor="end" font-family="Arial" font-size="14">0.75</text>
<line x1="165.0" y1="90" x2="165.0" y2="525" stroke="#eeeeee"/>
<text x="165.0" y="551" text-anchor="middle" font-family="Arial" font-size="14">70%</text>
<line x1="315.0" y1="90" x2="315.0" y2="525" stroke="#eeeeee"/>
<text x="315.0" y="551" text-anchor="middle" font-family="Arial" font-size="14">75%</text>
<line x1="465.0" y1="90" x2="465.0" y2="525" stroke="#eeeeee"/>
<text x="465.0" y="551" text-anchor="middle" font-family="Arial" font-size="14">80%</text>
<line x1="615.0" y1="90" x2="615.0" y2="525" stroke="#eeeeee"/>
<text x="615.0" y="551" text-anchor="middle" font-family="Arial" font-size="14">85%</text>
<line x1="765.0" y1="90" x2="765.0" y2="525" stroke="#eeeeee"/>
<text x="765.0" y="551" text-anchor="middle" font-family="Arial" font-size="14">90%</text>
<line x1="105" y1="525" x2="855" y2="525" stroke="#333" stroke-width="2"/>
<line x1="105" y1="90" x2="105" y2="525" stroke="#333" stroke-width="2"/>
<line x1="278.2" y1="444.5" x2="728.4" y2="163.5" stroke="#777" stroke-width="2" stroke-dasharray="8 6"/>
<circle cx="728.4" cy="163.5" r="12" fill="#1f77b4" stroke="white" stroke-width="3"/>
<text x="745.4" y="149.5" font-family="Arial" font-size="20" font-weight="700">O2</text>
<circle cx="278.2" cy="444.5" r="12" fill="#d62728" stroke="white" stroke-width="3"/>
<text x="295.2" y="430.5" font-family="Arial" font-size="20" font-weight="700">O3</text>
<text x="480.0" y="582" text-anchor="middle" font-family="Arial" font-size="16">Pair predictions changed after command-value inversion</text>
<text transform="translate(26 307.5) rotate(-90)" text-anchor="middle" font-family="Arial" font-size="16">Clean two-edit balanced score</text>
<text x="105" y="610" font-family="Arial" font-size="12" fill="#555">Validation only · 20 checkpoints per method · 12,300 pairs per method</text>
</svg>
